<?xml version="1.0" standalone="no"?>
<!DOCTYPE svg PUBLIC "-//W3C//DTD SVG 20010904//EN"
 "http://www.w3.org/TR/2001/REC-SVG-20010904/DTD/svg10.dtd">
<svg version="1.0" xmlns="http://www.w3.org/2000/svg"
 width="1024.000000pt" height="1024.000000pt" viewBox="0 0 1024.000000 1024.000000"
 preserveAspectRatio="xMidYMid meet">

<g transform="translate(0.000000,1024.000000) scale(0.100000,-0.100000)"
fill="#000000" stroke="none">
<path d="M1630 6310 l0 -469 -22 -12 c-19 -9 -494 -296 -507 -306 -9 -6 56
-48 286 -184 l242 -144 1 -582 c0 -382 3 -583 10 -583 6 0 10 36 10 88 l0 89
54 44 c30 24 183 154 340 289 l286 245 0 227 0 228 -202 119 c-112 66 -212
126 -223 134 -19 14 -19 14 5 27 14 7 114 67 222 134 l198 121 0 285 0 285
-242 150 c-132 83 -290 180 -349 218 l-109 67 0 -470z"/>
<path d="M2985 6258 c-2 -7 -6 -69 -9 -138 -6 -122 -39 -852 -52 -1157 l-6
-153 151 0 151 0 0 73 c0 39 7 230 15 422 8 193 15 394 15 448 0 53 3 97 8 97
4 -1 52 -96 107 -213 55 -117 135 -285 178 -374 l78 -163 120 0 120 0 60 128
c110 231 271 577 280 600 16 43 24 21 27 -76 2 -53 9 -261 17 -462 8 -201 15
-391 15 -422 l0 -58 156 0 156 0 -4 93 c-3 50 -17 364 -32 697 -15 333 -30
620 -32 638 l-5 32 -198 0 -198 0 -91 -197 c-162 -352 -254 -548 -261 -555 -4
-4 -56 97 -115 225 -60 127 -141 298 -179 380 l-70 147 -199 0 c-150 0 -200
-3 -203 -12z"/>
<path d="M7361 6227 c-10 -24 -110 -277 -221 -563 -112 -285 -233 -594 -270
-687 l-67 -167 170 2 170 3 57 160 58 160 284 3 284 2 59 -165 60 -165 168 0
c92 0 167 3 167 6 0 3 -9 26 -19 52 -22 53 -128 329 -372 969 l-164 433 -173
0 -173 0 -18 -43z m293 -572 c53 -148 96 -273 96 -277 0 -4 -93 -8 -206 -8
-161 0 -205 3 -202 13 146 415 202 567 209 555 4 -8 51 -135 103 -283z"/>
<path d="M8490 6145 l0 -125 145 0 145 0 0 125 0 125 -145 0 -145 0 0 -125z"/>
<path d="M5060 5855 c-77 -16 -128 -34 -196 -68 l-51 -26 32 -93 c17 -51 34
-101 38 -111 6 -16 12 -15 67 13 182 92 389 73 434 -40 31 -79 35 -77 -136
-84 -180 -8 -242 -19 -323 -56 -70 -31 -145 -107 -166 -166 -20 -57 -18 -189
4 -246 22 -56 97 -129 164 -161 41 -18 66 -22 168 -22 111 0 124 2 176 27 30
15 73 46 95 68 21 22 42 40 45 40 4 0 11 -26 15 -57 l9 -58 128 -3 127 -3 0
328 c-1 180 -5 358 -9 394 -22 172 -119 277 -298 323 -74 19 -231 20 -323 1z
m340 -633 c0 -75 -13 -119 -47 -155 -85 -89 -234 -101 -299 -24 -23 27 -26 38
-22 84 9 105 92 150 281 152 l87 1 0 -58z"/>
<path d="M5775 5850 c-1 -3 24 -66 57 -140 133 -301 368 -853 368 -864 0 -6
-38 -98 -85 -205 -47 -106 -85 -197 -85 -202 0 -6 64 -8 152 -7 l152 3 94 230
c109 271 472 1182 472 1187 0 1 -69 3 -153 3 l-153 0 -115 -328 c-63 -181
-118 -329 -123 -330 -5 -1 -61 143 -126 320 -64 178 -119 325 -121 328 -7 6
-330 11 -334 5z"/>
<path d="M8490 5330 l0 -520 145 0 145 0 0 520 0 520 -145 0 -145 0 0 -520z"/>
<path d="M3125 4348 c-14 -37 -84 -234 -140 -395 -36 -99 -76 -211 -90 -248
-14 -37 -25 -71 -25 -76 0 -5 26 -9 58 -9 58 0 58 0 71 38 8 20 22 61 33 90
l19 52 149 0 148 0 29 -87 30 -88 61 -3 c34 -2 62 0 62 4 0 3 -56 160 -125
348 -69 189 -125 348 -125 354 0 18 -17 23 -85 28 -48 4 -66 2 -70 -8z m134
-287 c28 -85 50 -155 49 -156 -5 -6 -228 -10 -228 -5 0 21 115 329 120 323 4
-4 30 -77 59 -162z"/>
<path d="M4430 3990 l0 -370 54 0 55 0 3 169 c3 191 9 209 83 245 35 17 42 18
79 5 63 -22 70 -45 74 -246 l4 -173 54 0 54 0 0 184 c0 188 -6 226 -42 279
-28 39 -70 57 -136 58 -62 1 -114 -16 -149 -50 l-23 -22 0 146 0 145 -55 0
-55 0 0 -370z"/>
<path d="M8680 3988 l0 -368 55 0 55 0 0 368 0 367 -55 0 -55 0 0 -367z"/>
<path d="M5020 4290 l0 -60 55 0 55 0 0 60 0 60 -55 0 -55 0 0 -60z"/>
<path d="M5348 4287 l-38 -11 0 -72 0 -73 -47 -3 -48 -3 -3 -42 -3 -43 51 0
50 0 0 -162 c0 -135 3 -169 18 -198 26 -52 72 -72 159 -68 40 2 76 8 81 13 5
6 7 29 5 52 -5 41 -5 41 -36 32 -43 -12 -91 5 -106 37 -6 15 -11 80 -11 159
l0 135 74 0 74 0 4 41 c2 22 2 42 -1 45 -2 2 -37 4 -78 4 l-73 0 0 85 c0 94 2
93 -72 72z"/>
<path d="M6813 4287 l-43 -11 0 -73 0 -73 -45 0 -45 0 0 -45 0 -45 44 0 44 0
4 -167 c3 -145 6 -172 23 -200 26 -43 70 -63 142 -63 94 0 103 5 103 55 l0 43
-55 -1 c-86 -2 -89 5 -93 183 l-3 150 75 0 76 0 0 45 0 45 -75 0 -75 0 0 85
c0 95 4 91 -77 72z"/>
<path d="M3826 4138 c-46 -10 -62 -22 -88 -63 l-18 -30 0 43 0 42 -55 0 -55 0
0 -255 0 -255 55 0 55 0 0 138 c0 154 9 200 49 244 22 25 37 32 79 36 l52 5 0
47 c0 55 -11 62 -74 48z"/>
<path d="M5843 4139 c-102 -18 -170 -90 -194 -206 -24 -115 17 -223 110 -288
41 -29 47 -30 145 -30 78 0 111 4 144 19 41 19 42 20 42 68 l0 48 -42 -21
c-63 -32 -172 -37 -216 -10 -35 22 -72 75 -72 104 0 16 15 17 180 17 l180 0 0
48 c0 101 -46 194 -112 228 -41 21 -115 31 -165 23z m121 -107 c20 -18 46 -72
46 -97 0 -13 -19 -15 -125 -15 -139 0 -140 1 -109 65 16 34 44 59 79 68 31 8
88 -3 109 -21z"/>
<path d="M7975 4143 c-50 -11 -76 -28 -97 -62 l-23 -36 -3 43 -3 42 -55 0 -54
0 0 -255 0 -255 58 0 58 0 0 158 c-1 132 2 162 17 190 24 44 72 72 125 72 l43
0 -3 53 c-3 55 -12 62 -63 50z"/>
<path d="M4075 4121 c-54 -25 -111 -86 -130 -140 -21 -61 -20 -185 4 -237 23
-49 88 -107 140 -122 50 -15 166 -14 211 2 33 12 35 15 38 64 2 29 1 52 -1 52
-2 0 -18 -7 -35 -15 -17 -9 -53 -18 -80 -22 -115 -13 -189 63 -180 189 9 127
123 192 243 139 26 -11 49 -21 52 -21 2 0 3 24 1 53 -3 50 -5 53 -38 64 -56
19 -178 16 -225 -6z"/>
<path d="M6344 4116 c-93 -43 -144 -133 -144 -253 0 -158 99 -253 260 -252 41
0 91 5 110 12 33 11 35 14 38 65 l3 53 -31 -16 c-43 -22 -120 -30 -163 -16
-141 47 -140 285 1 332 42 14 108 7 152 -15 18 -9 35 -16 37 -16 1 0 3 23 3
51 0 48 -2 51 -35 65 -56 23 -170 18 -231 -10z"/>
<path d="M8200 4117 l-55 -23 3 -49 c3 -58 6 -63 29 -43 28 23 105 48 150 48
53 0 91 -31 99 -81 l6 -36 -48 -1 c-182 -3 -274 -62 -274 -176 0 -105 62 -152
196 -147 18 1 54 16 83 35 l51 35 0 -30 c0 -28 1 -29 51 -29 l50 0 -3 203 c-3
190 -4 204 -26 239 -49 78 -193 104 -312 55z m230 -301 c0 -33 -7 -52 -25 -75
-66 -77 -192 -57 -183 30 4 42 38 66 108 78 101 16 100 17 100 -33z"/>
<path d="M5020 3875 l0 -255 55 0 55 0 0 255 0 255 -55 0 -55 0 0 -255z"/>
<path d="M7140 3948 c0 -101 5 -200 10 -220 23 -81 84 -121 185 -121 58 0 86
12 133 56 l32 31 0 -37 0 -37 53 0 52 0 -3 255 -3 255 -54 0 -55 0 0 -160 c0
-178 -8 -213 -56 -245 -33 -21 -98 -24 -132 -6 -43 23 -52 66 -52 246 l0 165
-55 0 -55 0 0 -182z"/>
</g>
</svg>
