<?xml version="1.0" standalone="no"?>
<!DOCTYPE svg PUBLIC "-//W3C//DTD SVG 20010904//EN" "http://www.w3.org/TR/2001/REC-SVG-20010904/DTD/svg10.dtd">
<svg xmlns="http://www.w3.org/2000/svg" version="1.0" width="1024.000000pt" height="1024.000000pt" viewBox="0 0 1024.000000 1024.000000" preserveAspectRatio="xMidYMid meet">
<metadata>
Created by potrace 1.16, written by Peter Selinger 2001-2019
<meta name="Producer" content="Online-Convert"/>
</metadata>
<g transform="translate(0.000000,1024.000000) scale(0.100000,-0.100000)" fill="#ffffff" stroke="none">
<path d="M1627 6794 c-4 -4 -7 -211 -7 -461 0 -295 -3 -453 -10 -453 -5 0 -10 -10 -10 -23 0 -18 -15 -32 -67 -63 -37 -21 -73 -38 -81 -36 -8 2 -11 -1 -8 -6 3 -5 -75 -59 -174 -118 -98 -60 -178 -113 -176 -119 1 -5 72 -52 157 -103 85 -51 153 -98 151 -103 -1 -6 2 -8 8 -4 13 8 126 -60 134 -80 3 -9 12 -12 22 -8 12 4 15 3 10 -5 -5 -8 1 -12 18 -12 l26 0 0 -495 c0 -369 -3 -494 -12 -489 -7 5 -8 3 -3 -6 4 -7 9 -31 11 -54 7 -91 16 -146 24 -151 10 -6 25 116 17 145 -3 11 -2 18 3 15 4 -3 11 3 14 12 4 9 2 19 -3 22 -12 8 165 164 185 164 7 0 11 4 8 8 -6 10 127 119 138 113 5 -3 7 0 6 8 -2 7 3 12 10 10 6 -1 11 2 10 7 -4 14 113 111 125 104 6 -3 7 -1 4 4 -4 6 36 46 88 89 l95 79 0 226 c0 124 -3 229 -7 233 -5 4 -8 13 -8 19 0 7 -9 11 -19 10 -24 -2 -252 133 -260 153 -3 9 -10 13 -16 9 -9 -6 -90 36 -116 60 -8 7 10 24 63 57 41 27 76 48 78 48 1 0 53 31 113 69 61 39 125 77 141 86 l31 16 0 289 0 290 -35 17 c-19 9 -32 19 -30 23 2 4 -1 7 -8 7 -23 0 -117 65 -110 75 3 7 1 8 -5 4 -15 -9 -213 114 -205 127 3 6 1 7 -6 3 -7 -5 -50 17 -104 52 -51 32 -113 71 -139 86 -26 15 -46 32 -45 38 2 13 -17 21 -26 12z"/>
<path d="M3187 6272 c-128 -1 -203 -6 -210 -13 -8 -8 -12 -51 -11 -133 0 -66 -3 -193 -7 -281 -5 -88 -15 -320 -23 -515 -9 -195 -19 -394 -22 -442 l-6 -88 156 0 156 0 1 33 c0 17 2 55 4 82 2 28 9 199 15 380 6 182 13 355 15 385 2 30 4 80 5 110 l0 54 35 -73 c19 -40 32 -78 28 -84 -3 -7 -3 -9 2 -5 10 10 127 -232 120 -249 -2 -8 -1 -12 3 -9 12 7 44 -63 36 -76 -4 -6 -2 -8 3 -5 6 4 19 -11 29 -36 10 -23 20 -46 22 -51 3 -5 0 -6 -7 -2 -7 5 -9 1 -5 -8 3 -9 10 -14 14 -11 4 3 23 -27 41 -65 l33 -70 126 0 127 0 60 128 c33 70 102 216 153 324 51 109 96 195 100 193 5 -3 6 3 3 14 -3 10 0 22 6 25 6 4 11 -1 12 -11 1 -13 3 -11 9 7 8 25 8 25 9 -5 1 -16 8 -194 17 -395 9 -201 14 -405 12 -455 -3 -49 -2 -79 3 -65 7 24 7 24 8 -5 1 -17 -4 -36 -10 -42 -8 -8 34 -12 160 -13 106 0 171 3 171 9 0 6 -9 176 -20 378 -10 202 -21 413 -24 468 -3 55 -11 215 -17 355 -6 140 -12 256 -13 257 -2 2 -363 5 -398 4 -9 -1 -20 -11 -24 -23 -11 -35 -144 -321 -152 -328 -4 -3 -8 -12 -10 -20 -5 -33 -66 -149 -75 -143 -5 3 -7 0 -5 -8 5 -15 -8 -49 -62 -162 l-32 -69 -40 84 c-143 300 -178 380 -172 390 4 6 3 8 -3 5 -5 -3 -38 55 -73 131 -34 75 -65 139 -69 142 -3 3 -95 4 -204 2z"/>
<path d="M7541 6270 l-173 -5 -37 -98 c-21 -53 -41 -94 -46 -90 -4 5 -5 3 -2 -4 10 -16 -33 -124 -46 -116 -6 3 -7 1 -3 -6 4 -6 -26 -98 -68 -204 -41 -105 -100 -254 -129 -330 -29 -75 -57 -134 -62 -130 -4 5 -5 3 -2 -4 6 -10 -88 -268 -152 -416 -12 -27 -21 -53 -21 -58 0 -6 69 -8 172 -7 l173 3 46 132 c26 72 53 144 61 160 l13 28 279 1 278 2 15 -36 c35 -85 102 -282 93 -277 -6 3 -10 1 -10 -4 0 -7 62 -11 186 -11 174 0 186 1 178 18 -4 9 -8 27 -8 39 -1 11 -4 19 -7 17 -8 -4 -119 293 -115 309 1 7 1 8 -2 3 -6 -12 -114 263 -116 296 0 14 -4 24 -8 22 -3 -2 -20 33 -37 78 -16 46 -69 184 -116 308 -48 124 -98 257 -112 295 -14 39 -31 75 -37 80 -7 6 -76 8 -185 5z m57 -470 c22 -63 59 -167 82 -230 22 -63 38 -120 35 -128 -2 -7 -1 -11 4 -8 8 6 21 -25 21 -51 0 -10 -43 -13 -182 -13 -101 0 -189 4 -196 9 -11 7 5 62 78 267 50 143 93 265 96 273 8 24 20 1 62 -119z"/>
<path d="M8484 6271 c-2 -2 -4 -60 -4 -128 l0 -123 36 0 c21 0 33 -4 29 -10 -4 -6 4 -5 19 1 20 10 29 9 43 -2 11 -9 14 -10 9 -1 -5 9 8 12 53 12 42 0 61 -4 61 -12 0 -9 3 -9 9 1 8 12 12 12 24 2 22 -18 30 29 22 139 -5 64 -3 90 5 90 7 0 8 6 2 15 -7 13 -35 16 -156 18 -81 1 -150 0 -152 -2z"/>
<path d="M5120 5870 c-91 -11 -143 -26 -232 -67 -47 -22 -78 -43 -81 -54 -3 -11 -2 -17 2 -15 11 7 53 -132 45 -146 -4 -6 -3 -8 4 -4 6 3 13 -6 17 -24 4 -17 10 -30 13 -28 4 2 31 16 59 31 136 71 332 77 404 11 11 -10 17 -24 14 -31 -2 -8 -1 -12 4 -9 10 6 21 -26 21 -61 0 -20 -4 -21 -138 -22 -75 -1 -168 -8 -206 -16 -225 -47 -336 -189 -304 -389 12 -77 37 -125 91 -172 25 -22 43 -46 41 -56 -1 -11 3 -15 13 -11 12 5 12 7 1 15 -14 11 -5 8 67 -20 62 -25 225 -21 294 6 30 12 58 19 63 16 5 -3 7 -2 6 3 -5 14 66 71 81 65 10 -3 12 0 8 12 -4 10 -3 15 3 11 6 -3 10 -17 10 -29 0 -13 3 -38 6 -55 l7 -31 134 0 135 0 -6 374 c-7 405 -9 425 -66 523 -16 29 -49 66 -75 84 -25 18 -45 38 -45 46 0 7 -5 13 -11 13 -5 0 -7 -4 -4 -10 8 -14 -1 -13 -33 4 -39 20 -173 46 -229 45 -26 -1 -77 -5 -113 -9z m273 -658 c-1 -34 -7 -78 -13 -97 -13 -39 -66 -89 -87 -81 -8 3 -12 2 -9 -3 9 -14 -51 -31 -105 -31 -106 0 -157 51 -142 142 7 48 35 80 60 72 14 -5 15 -4 4 4 -35 25 119 62 244 58 l50 -1 -2 -63z"/>
<path d="M5764 5836 c0 -13 4 -22 7 -20 10 6 60 -116 53 -128 -4 -6 -2 -8 3 -5 13 8 26 -20 16 -36 -3 -7 -3 -9 2 -5 6 6 125 -249 125 -268 0 -3 -5 -2 -12 2 -7 4 -8 3 -4 -5 4 -6 11 -9 15 -6 12 7 51 -102 45 -123 -4 -12 -3 -13 3 -4 7 9 22 -17 52 -88 34 -79 41 -103 32 -114 -9 -10 -9 -16 -1 -21 6 -4 10 -3 9 2 -6 32 6 19 31 -37 16 -36 27 -71 25 -78 -3 -7 -1 -11 4 -8 5 3 13 -7 19 -22 8 -25 -2 -54 -80 -232 -50 -115 -84 -206 -78 -208 5 -2 8 -8 5 -12 -3 -5 0 -12 6 -16 7 -4 9 -3 5 4 -10 17 42 23 168 20 89 -2 119 1 125 11 5 7 89 213 187 456 98 244 181 442 186 439 4 -3 6 1 3 8 -4 10 131 364 192 506 4 9 -31 12 -156 12 -121 0 -163 -3 -166 -12 -39 -120 -93 -257 -100 -251 -4 5 -5 0 -2 -9 7 -21 -67 -241 -78 -231 -4 5 -5 3 -2 -3 4 -7 -2 -38 -13 -70 -33 -96 -30 -91 -39 -74 -17 30 -24 63 -12 56 6 -4 11 -2 11 3 0 6 -6 11 -14 11 -7 0 -20 19 -29 43 -9 23 -32 86 -52 140 -20 54 -34 105 -31 113 3 8 2 13 -3 10 -5 -3 -31 56 -58 132 l-50 137 -176 3 -175 2 2 -24z"/>
<path d="M8482 5330 l0 -530 153 0 154 0 3 28 c2 15 2 253 0 530 l-2 502 -154 0 -155 0 1 -530z"/>
<path d="M4424 4361 c-2 -2 -4 -172 -4 -377 0 -391 0 -394 44 -372 10 6 21 6 25 2 9 -13 51 -12 53 0 1 6 2 83 3 171 1 147 3 164 23 196 35 57 111 78 159 44 34 -24 43 -76 43 -253 l0 -163 62 3 62 3 -2 200 c-2 186 -4 203 -25 245 -27 52 -65 77 -130 86 -60 9 -107 -1 -151 -31 -19 -13 -37 -21 -40 -17 -2 4 -4 54 -4 112 0 172 6 155 -58 155 -31 0 -58 -2 -60 -4z"/>
<path d="M3010 4038 c-129 -365 -146 -408 -163 -408 -7 0 -6 -4 3 -10 8 -5 43 -10 77 -10 l61 0 20 58 c11 31 26 72 33 90 l13 32 81 1 c44 0 109 1 144 1 l65 0 30 -88 31 -89 65 0 c55 0 65 2 62 17 -1 9 -59 171 -127 358 -69 188 -125 348 -125 356 0 11 -18 14 -78 14 l-78 0 -114 -322z m244 20 l54 -156 -113 -1 -114 -2 40 113 c23 62 48 134 57 161 8 26 16 46 18 44 2 -1 28 -73 58 -159z"/>
<path d="M5010 4291 c0 -65 13 -97 29 -74 3 5 26 9 51 8 l45 0 3 68 3 67 -66 0 -65 0 0 -69z"/>
<path d="M8670 3986 l0 -374 46 0 c25 0 48 -3 51 -6 4 -3 12 -1 19 5 10 8 13 93 14 380 l0 369 -65 0 -65 0 0 -374z"/>
<path d="M5365 4296 c-54 -17 -102 -46 -76 -46 7 0 11 -24 11 -60 0 -33 -3 -59 -7 -59 -5 1 -27 1 -50 0 l-42 -1 1 -54 c1 -36 5 -52 12 -48 6 4 27 7 48 7 l36 0 4 -165 c3 -151 5 -168 26 -201 31 -51 84 -71 177 -67 40 2 71 6 68 10 -2 5 1 8 7 8 7 0 10 7 6 15 -3 8 0 15 7 15 7 0 8 3 2 8 -5 4 -11 18 -13 32 -2 14 -10 32 -18 40 -14 13 -15 13 -12 0 5 -26 -76 -26 -102 0 -19 19 -21 31 -19 160 l1 140 74 0 74 0 0 50 0 50 -75 0 -74 0 -3 93 -3 92 -60 -19z"/>
<path d="M6790 4298 c0 -9 -5 -18 -12 -20 -7 -3 -11 -28 -9 -77 l2 -73 -48 3 -48 3 -1 -57 c-1 -55 7 -79 21 -57 9 14 36 13 33 -2 -2 -6 6 -14 16 -16 15 -3 18 0 13 17 -3 12 -1 21 4 21 5 0 9 -71 9 -160 0 -176 8 -211 54 -248 34 -26 99 -36 171 -27 54 6 55 7 55 38 0 18 -3 42 -6 55 -6 20 -11 22 -53 16 -38 -5 -51 -2 -71 14 -24 20 -25 25 -28 161 l-4 141 76 0 76 0 0 50 0 50 -75 0 -75 0 0 90 c0 50 -4 90 -9 90 -4 0 -23 -5 -41 -11 -26 -9 -34 -9 -41 2 -7 11 -9 11 -9 -3z"/>
<path d="M5026 4148 c3 -10 1 -18 -5 -18 -8 0 -11 -76 -11 -259 l0 -260 55 2 c31 1 55 -2 55 -8 0 -5 5 -2 10 7 6 10 9 118 8 270 l-3 253 -43 -4 c-33 -2 -47 2 -58 16 -13 16 -13 16 -8 1z"/>
<path d="M7740 4155 c0 -6 0 -533 0 -542 0 -5 26 -7 57 -7 l58 2 5 168 c3 107 10 177 18 191 24 43 62 63 117 63 l53 0 3 38 c7 74 3 82 -47 82 -50 0 -89 -16 -119 -50 l-20 -22 -5 28 c-5 26 -8 29 -42 26 -44 -4 -81 6 -73 19 4 5 4 9 1 9 -3 0 -6 -2 -6 -5z"/>
<path d="M3802 4140 c-13 -6 -29 -7 -35 -3 -7 3 -9 2 -4 -2 7 -9 -20 -45 -35 -45 -4 0 -8 9 -8 20 0 20 1 20 -107 20 -4 0 -6 -116 -5 -257 l1 -258 35 0 c19 0 37 -3 41 -6 3 -4 15 -5 26 -2 18 5 19 15 19 161 0 138 2 161 21 199 12 24 28 47 37 52 31 15 85 21 98 11 17 -15 22 -4 25 60 l3 55 -44 2 c-25 1 -56 -2 -68 -7z"/>
<path d="M4090 4130 c-166 -57 -226 -291 -112 -439 15 -20 26 -39 25 -42 -1 -4 5 -6 15 -5 9 0 16 -5 14 -12 -1 -8 1 -11 6 -8 5 3 31 -2 58 -10 59 -19 162 -14 217 10 37 16 37 17 37 74 0 45 -3 59 -15 59 -8 0 -12 -4 -10 -8 8 -13 -74 -39 -123 -39 -100 0 -154 56 -153 159 0 115 53 175 154 172 29 0 53 -5 55 -11 2 -6 8 -8 13 -5 4 3 22 -1 38 -10 17 -8 31 -15 33 -15 2 0 4 24 6 54 3 61 -3 68 -70 85 -66 16 -125 13 -188 -9z"/>
<path d="M5808 4136 c-112 -41 -167 -130 -169 -270 0 -51 -3 -65 -10 -51 -8 19 -9 19 -6 -3 1 -12 6 -24 12 -25 5 -1 20 -23 33 -50 48 -95 147 -144 273 -134 36 3 87 15 113 27 l46 22 0 54 c0 30 -2 54 -4 54 -3 0 -21 -10 -41 -22 -26 -15 -60 -23 -113 -26 -94 -6 -136 13 -163 73 l-18 40 179 3 c162 2 180 4 181 20 3 70 -5 133 -24 172 -11 25 -21 50 -22 57 0 13 -25 42 -25 30 0 -4 -19 3 -42 15 -52 27 -147 34 -200 14z m136 -97 c14 -7 32 -26 41 -44 27 -58 22 -63 -52 -67 -38 -2 -91 -1 -120 2 l-52 5 19 42 c28 64 100 91 164 62z"/>
<path d="M6367 4133 c-69 -26 -111 -65 -144 -130 -24 -49 -28 -70 -28 -138 0 -90 16 -132 70 -188 56 -58 97 -72 212 -72 56 -1 100 2 98 6 -3 3 7 11 20 17 14 7 25 18 25 26 0 8 6 16 13 19 10 4 10 7 0 18 -15 15 -17 53 -3 44 6 -3 10 1 10 9 0 20 1 20 -58 -9 -100 -50 -210 -27 -247 52 -22 46 -22 130 0 177 35 73 140 101 231 60 53 -24 78 -26 62 -7 -7 8 -11 32 -9 53 2 35 -1 40 -31 56 -48 25 -161 29 -221 7z"/>
<path d="M8247 4139 c-46 -11 -117 -46 -117 -58 0 -5 -3 -18 -6 -28 -5 -15 -4 -15 5 -3 8 12 11 7 11 -21 0 -46 8 -53 37 -34 13 9 29 13 35 9 6 -4 8 -3 6 3 -8 13 29 26 45 16 7 -4 9 -3 6 3 -10 16 60 26 97 13 32 -10 48 -31 61 -76 5 -20 1 -21 -67 -27 -149 -12 -224 -52 -248 -134 -33 -109 45 -203 167 -203 49 0 117 28 139 56 10 12 12 13 17 1 3 -8 1 -19 -5 -25 -7 -7 -3 -12 13 -18 36 -11 98 -10 103 2 2 6 3 96 1 201 -4 238 -16 272 -106 313 -47 21 -125 25 -192 9z m183 -306 c0 -78 -53 -133 -126 -133 -52 1 -77 21 -76 61 1 57 52 86 155 88 38 1 47 -2 47 -16z"/>
<path d="M7188 4132 c-67 -3 -60 22 -59 -206 1 -148 10 -200 43 -255 39 -63 153 -90 234 -56 20 8 40 12 45 9 5 -3 8 -2 7 3 -2 4 5 19 15 33 l19 25 -4 -40 -3 -40 63 5 c34 3 62 8 62 13 0 4 0 122 0 262 l0 254 -47 0 c-83 -1 -78 11 -79 -176 0 -165 -10 -223 -35 -208 -5 4 -8 1 -7 -7 2 -8 -4 -12 -16 -10 -10 2 -15 -1 -12 -7 19 -30 -101 -22 -128 8 -25 28 -37 126 -31 265 2 69 1 126 -3 128 -4 2 -33 2 -64 0z"/>
</g>
</svg>